<svg width="19" height="17" viewBox="0 0 19 17" fill="none" xmlns="http://www.w3.org/2000/svg">
<g id="Heart">
<path id="Combined Shape" fill-rule="evenodd" clip-rule="evenodd" d="M8.1834 3.13855L9.35903 4.22581L10.5347 3.13855C11.1596 2.56061 11.9805 2.21135 12.8847 2.21135C14.8318 2.21135 16.4103 3.84241 16.4103 5.85439C16.4103 6.50083 16.3442 7.10713 16.2235 7.67585H13.9065L12.8134 5.04021C12.6745 4.70535 12.3558 4.48823 12.0032 4.48823C11.6506 4.48823 11.332 4.70535 11.1931 5.04021L9.35894 9.4622L8.84701 8.22786C8.7081 7.89297 8.38947 7.67585 8.03682 7.67585H2.49459C2.37387 7.10712 2.30774 6.50081 2.30774 5.85435C2.30774 3.84238 3.88623 2.21135 5.83338 2.21135C6.73749 2.21135 7.55845 2.56061 8.1834 3.13855ZM1.18901 9.49735C2.77447 13.7332 6.8617 15.8841 8.57986 16.6243C9.08182 16.8405 9.63623 16.8405 10.1382 16.6243C12.2928 15.696 18.1731 12.5495 18.1731 5.8544C18.1731 2.83643 15.8054 0.389851 12.8847 0.389851C11.5302 0.389851 10.2946 0.916 9.35903 1.78129C8.42341 0.916 7.18786 0.389851 5.83338 0.389851C2.91265 0.389851 0.544922 2.83639 0.544922 5.85435C0.544922 6.49347 0.598509 7.10025 0.697325 7.67585H0.697274C0.808155 8.32176 0.975984 8.92832 1.18896 9.49735H1.18901ZM3.11231 9.49735H7.45566L8.54883 12.133C8.68774 12.4679 9.00637 12.685 9.35894 12.685C9.71159 12.685 10.0302 12.4679 10.1691 12.133L12.0032 7.71101L12.5152 8.94535C12.6541 9.28023 12.9727 9.49735 13.3253 9.49735H15.6057C15.1263 10.5037 14.4694 11.3613 13.7377 12.0931C12.2197 13.6111 10.4345 14.5231 9.45977 14.9431C9.39199 14.9722 9.32606 14.9722 9.25828 14.9431C8.28353 14.5231 6.4983 13.6111 4.98039 12.0931C4.24867 11.3613 3.59176 10.5037 3.11231 9.49735Z" fill="#FAFAFA"/>
</g>
</svg>
